<mxfile host="drawio-plugin" modified="2022-12-06T06:51:42.762Z" agent="5.0 (Windows NT 6.2; Win64; x64) AppleWebKit/537.36 (KHTML, like Gecko) Chrome/97.0.4692.45 Safari/537.36" etag="8BZcngBOJ5V3G2qe2whV" version="20.5.3" type="embed"><diagram id="M8MxXBrPchK3HFXcNhpn" name="Page-1"><mxGraphModel dx="1844" dy="536" grid="1" gridSize="10" guides="1" tooltips="1" connect="1" arrows="1" fold="1" page="1" pageScale="1" pageWidth="827" pageHeight="1169" math="0" shadow="0"><root><mxCell id="0"/><mxCell id="1" parent="0"/><mxCell id="147" value="" style="rounded=0;whiteSpace=wrap;html=1;" vertex="1" parent="1"><mxGeometry x="-720" width="800" height="1040" as="geometry"/></mxCell><mxCell id="90" style="edgeStyle=orthogonalEdgeStyle;rounded=0;orthogonalLoop=1;jettySize=auto;html=1;exitX=0.5;exitY=1;exitDx=0;exitDy=0;entryX=0.5;entryY=0;entryDx=0;entryDy=0;fontSize=13;" parent="1" source="91" target="94" edge="1"><mxGeometry relative="1" as="geometry"/></mxCell><mxCell id="91" value="selectWaitRawSbomTask&lt;br&gt;&lt;span style=&quot;font-size: 11px; font-weight: 400;&quot;&gt;本地计算&lt;/span&gt;" style="rounded=1;whiteSpace=wrap;html=1;fillColor=#dae8fc;strokeColor=#6c8ebf;fontSize=13;fontStyle=1" parent="1" vertex="1"><mxGeometry x="-371" y="10" width="180" height="40" as="geometry"/></mxCell><mxCell id="92" value="No" style="edgeStyle=orthogonalEdgeStyle;rounded=0;orthogonalLoop=1;jettySize=auto;html=1;exitX=1;exitY=0.5;exitDx=0;exitDy=0;entryX=0;entryY=0.5;entryDx=0;entryDy=0;fontSize=13;dashed=1;" parent="1" source="94" target="95" edge="1"><mxGeometry y="10" relative="1" as="geometry"><mxPoint as="offset"/></mxGeometry></mxCell><mxCell id="93" value="YES" style="edgeStyle=orthogonalEdgeStyle;rounded=0;orthogonalLoop=1;jettySize=auto;html=1;exitX=0.5;exitY=1;exitDx=0;exitDy=0;entryX=0.5;entryY=0;entryDx=0;entryDy=0;fontSize=13;dashed=1;" parent="1" source="94" target="114" edge="1"><mxGeometry y="21" relative="1" as="geometry"><mxPoint as="offset"/></mxGeometry></mxCell><mxCell id="94" value="has wait job" style="rhombus;whiteSpace=wrap;html=1;fillColor=#d5e8d4;strokeColor=#82b366;fontSize=13;" parent="1" vertex="1"><mxGeometry x="-321" y="90" width="80" height="80" as="geometry"/></mxCell><mxCell id="95" value="Over" style="ellipse;whiteSpace=wrap;html=1;aspect=fixed;fillColor=#f8cecc;strokeColor=#b85450;fontSize=13;" parent="1" vertex="1"><mxGeometry x="-161" y="105" width="50" height="50" as="geometry"/></mxCell><mxCell id="96" style="edgeStyle=orthogonalEdgeStyle;rounded=0;orthogonalLoop=1;jettySize=auto;html=1;entryX=0.5;entryY=0;entryDx=0;entryDy=0;fontSize=12;fontColor=#000000;" parent="1" target="129" edge="1"><mxGeometry relative="1" as="geometry"><mxPoint x="-190" y="510" as="sourcePoint"/><Array as="points"><mxPoint x="-54" y="510"/><mxPoint x="-54" y="560"/></Array></mxGeometry></mxCell><mxCell id="97" value="Pkg-&amp;gt;Repo" style="edgeLabel;html=1;align=center;verticalAlign=middle;resizable=0;points=[];fontSize=12;fontColor=#000000;" parent="96" vertex="1" connectable="0"><mxGeometry x="-0.0161" y="-1" relative="1" as="geometry"><mxPoint y="-11" as="offset"/></mxGeometry></mxCell><mxCell id="98" style="edgeStyle=orthogonalEdgeStyle;rounded=0;orthogonalLoop=1;jettySize=auto;html=1;fontSize=12;fontColor=#000000;exitX=0;exitY=0.5;exitDx=0;exitDy=0;entryX=0.5;entryY=0;entryDx=0;entryDy=0;" parent="1" source="100" target="116" edge="1"><mxGeometry relative="1" as="geometry"><mxPoint x="-460" y="560" as="targetPoint"/><Array as="points"><mxPoint x="-477" y="510"/></Array></mxGeometry></mxCell><mxCell id="99" value="Pkg-&amp;gt;PURL" style="edgeLabel;html=1;align=center;verticalAlign=middle;resizable=0;points=[];fontSize=12;fontColor=#000000;" parent="98" vertex="1" connectable="0"><mxGeometry x="-0.1656" y="-2" relative="1" as="geometry"><mxPoint y="-8" as="offset"/></mxGeometry></mxCell><mxCell id="100" value="persistSbomMetadataTask&lt;br&gt;&lt;span style=&quot;font-size: 11px; font-weight: 400;&quot;&gt;本地计算&lt;/span&gt;" style="rounded=1;whiteSpace=wrap;html=1;fillColor=#dae8fc;strokeColor=#6c8ebf;fontSize=13;fontStyle=1" parent="1" vertex="1"><mxGeometry x="-371" y="490" width="180" height="40" as="geometry"/></mxCell><mxCell id="101" style="edgeStyle=orthogonalEdgeStyle;rounded=0;orthogonalLoop=1;jettySize=auto;html=1;exitX=0.5;exitY=1;exitDx=0;exitDy=0;fontSize=13;fontColor=#000000;" parent="1" source="102" target="100" edge="1"><mxGeometry relative="1" as="geometry"/></mxCell><mxCell id="102" value="parseSbomMetadataTask&lt;br&gt;&lt;span style=&quot;font-size: 11px; font-weight: 400;&quot;&gt;本地计算&lt;/span&gt;" style="rounded=1;whiteSpace=wrap;html=1;fillColor=#dae8fc;strokeColor=#6c8ebf;fontSize=13;fontStyle=1" parent="1" vertex="1"><mxGeometry x="-371" y="410" width="180" height="40" as="geometry"/></mxCell><mxCell id="103" style="edgeStyle=orthogonalEdgeStyle;rounded=0;orthogonalLoop=1;jettySize=auto;html=1;exitX=0.5;exitY=1;exitDx=0;exitDy=0;entryX=0;entryY=0.5;entryDx=0;entryDy=0;fontSize=13;fontColor=#000000;" parent="1" source="105" target="102" edge="1"><mxGeometry relative="1" as="geometry"/></mxCell><mxCell id="104" value="parse trace data" style="edgeLabel;html=1;align=center;verticalAlign=middle;resizable=0;points=[];fontSize=13;fontColor=#000000;" parent="103" vertex="1" connectable="0"><mxGeometry x="-0.3667" relative="1" as="geometry"><mxPoint y="-32" as="offset"/></mxGeometry></mxCell><mxCell id="105" value="AnalyzeTraceDataTask&lt;br&gt;&lt;span style=&quot;font-size: 11px; font-weight: 400;&quot;&gt;本地计算&lt;/span&gt;" style="rounded=1;whiteSpace=wrap;html=1;fillColor=#dae8fc;strokeColor=#6c8ebf;fontSize=13;fontStyle=1" parent="1" vertex="1"><mxGeometry x="-581" y="330" width="180" height="40" as="geometry"/></mxCell><mxCell id="106" style="edgeStyle=orthogonalEdgeStyle;rounded=0;orthogonalLoop=1;jettySize=auto;html=1;entryX=1;entryY=0.5;entryDx=0;entryDy=0;fontSize=13;fontColor=#000000;exitX=0.5;exitY=1;exitDx=0;exitDy=0;" parent="1" source="108" target="102" edge="1"><mxGeometry relative="1" as="geometry"/></mxCell><mxCell id="107" value="&lt;font style=&quot;font-size: 12px&quot;&gt;analyze package managers&lt;/font&gt;" style="edgeLabel;html=1;align=center;verticalAlign=middle;resizable=0;points=[];fontSize=13;fontColor=#000000;" parent="106" vertex="1" connectable="0"><mxGeometry x="-0.0444" y="1" relative="1" as="geometry"><mxPoint x="16" y="-36" as="offset"/></mxGeometry></mxCell><mxCell id="108" value="AnalyzeDefinitionFileTask&lt;br&gt;&lt;span style=&quot;font-size: 11px; font-weight: 400;&quot;&gt;本地计算&lt;/span&gt;" style="rounded=1;whiteSpace=wrap;html=1;fillColor=#dae8fc;strokeColor=#6c8ebf;fontSize=13;fontStyle=1" parent="1" vertex="1"><mxGeometry x="-161" y="330" width="180" height="40" as="geometry"/></mxCell><mxCell id="109" value="&lt;font style=&quot;font-size: 12px&quot;&gt;SBOM File&lt;/font&gt;" style="edgeStyle=orthogonalEdgeStyle;rounded=0;orthogonalLoop=1;jettySize=auto;html=1;exitX=0.5;exitY=1;exitDx=0;exitDy=0;entryX=0.5;entryY=0;entryDx=0;entryDy=0;fontSize=13;fontColor=#000000;dashed=1;" parent="1" source="114" target="102" edge="1"><mxGeometry relative="1" as="geometry"><mxPoint x="-281" y="310" as="sourcePoint"/></mxGeometry></mxCell><mxCell id="110" style="edgeStyle=orthogonalEdgeStyle;rounded=0;orthogonalLoop=1;jettySize=auto;html=1;fontSize=13;fontColor=#000000;dashed=1;" parent="1" source="114" target="105" edge="1"><mxGeometry relative="1" as="geometry"/></mxCell><mxCell id="111" value="&lt;font style=&quot;font-size: 12px&quot;&gt;Trace Data File&lt;/font&gt;" style="edgeLabel;html=1;align=center;verticalAlign=middle;resizable=0;points=[];fontSize=13;fontColor=#000000;" parent="110" vertex="1" connectable="0"><mxGeometry x="-0.0087" relative="1" as="geometry"><mxPoint x="-46" y="40" as="offset"/></mxGeometry></mxCell><mxCell id="112" style="edgeStyle=orthogonalEdgeStyle;rounded=0;orthogonalLoop=1;jettySize=auto;html=1;exitX=1;exitY=0.5;exitDx=0;exitDy=0;entryX=0.5;entryY=0;entryDx=0;entryDy=0;fontSize=13;fontColor=#000000;dashed=1;" parent="1" source="114" target="108" edge="1"><mxGeometry relative="1" as="geometry"/></mxCell><mxCell id="113" value="&lt;font style=&quot;font-size: 12px&quot;&gt;Package Managers&lt;/font&gt;" style="edgeLabel;html=1;align=center;verticalAlign=middle;resizable=0;points=[];fontSize=13;fontColor=#000000;" parent="112" vertex="1" connectable="0"><mxGeometry x="0.3391" y="3" relative="1" as="geometry"><mxPoint x="-7" y="33" as="offset"/></mxGeometry></mxCell><mxCell id="114" value="&lt;pre style=&quot;background-color: rgb(255 , 255 , 255) ; font-family: &amp;#34;jetbrains mono&amp;#34; , monospace ; font-size: 8.3pt&quot;&gt;&lt;pre style=&quot;font-family: &amp;#34;jetbrains mono&amp;#34; , monospace ; font-size: 8.3pt&quot;&gt;skipAnalyzeSbomContentDecider&lt;/pre&gt;&lt;/pre&gt;" style="rhombus;whiteSpace=wrap;html=1;fillColor=#d5e8d4;strokeColor=#82b366;fontSize=13;" parent="1" vertex="1"><mxGeometry x="-321" y="210" width="80" height="80" as="geometry"/></mxCell><mxCell id="115" style="edgeStyle=orthogonalEdgeStyle;rounded=0;orthogonalLoop=1;jettySize=auto;html=1;entryX=0.5;entryY=0;entryDx=0;entryDy=0;fontSize=12;fontColor=#000000;" parent="1" source="116" target="124" edge="1"><mxGeometry relative="1" as="geometry"><mxPoint x="-314" y="830" as="targetPoint"/></mxGeometry></mxCell><mxCell id="144" style="edgeStyle=orthogonalEdgeStyle;rounded=0;orthogonalLoop=1;jettySize=auto;html=1;exitX=0.5;exitY=0;exitDx=0;exitDy=0;entryX=0.522;entryY=0.013;entryDx=0;entryDy=0;entryPerimeter=0;fontSize=11;" parent="1" source="116" target="118" edge="1"><mxGeometry relative="1" as="geometry"/></mxCell><mxCell id="145" style="edgeStyle=orthogonalEdgeStyle;rounded=0;orthogonalLoop=1;jettySize=auto;html=1;exitX=0.5;exitY=0;exitDx=0;exitDy=0;entryX=0.5;entryY=0;entryDx=0;entryDy=0;fontSize=11;" parent="1" source="116" target="118" edge="1"><mxGeometry relative="1" as="geometry"/></mxCell><mxCell id="116" value="" style="rounded=1;whiteSpace=wrap;html=1;fontSize=12;fillColor=#e1d5e7;strokeColor=#9673a6;" parent="1" vertex="1"><mxGeometry x="-700" y="560" width="446" height="230" as="geometry"/></mxCell><mxCell id="117" value="&lt;b&gt;purlConsumers&lt;/b&gt;" style="text;html=1;strokeColor=none;fillColor=none;align=center;verticalAlign=middle;whiteSpace=wrap;rounded=0;fontSize=13;fontColor=#000000;" parent="1" vertex="1"><mxGeometry x="-704" y="565" width="140" height="20" as="geometry"/></mxCell><mxCell id="118" value="&lt;b&gt;resolveMavenDepTask&lt;br&gt;&lt;/b&gt;&lt;span style=&quot;font-size: 11px; font-weight: 400;&quot;&gt;增量缓存&lt;/span&gt;&lt;b&gt;&lt;br&gt;&lt;/b&gt;" style="rounded=1;whiteSpace=wrap;html=1;fillColor=#ffe6cc;strokeColor=#d79b00;fontSize=13;fontStyle=1" parent="1" vertex="1"><mxGeometry x="-574" y="590" width="180" height="40" as="geometry"/></mxCell><mxCell id="119" value="extractOssIndex&lt;br&gt;&lt;font style=&quot;font-size: 11px; font-weight: normal;&quot;&gt;外部请求&lt;/font&gt;" style="rounded=1;whiteSpace=wrap;html=1;fillColor=#ffe6cc;strokeColor=#d79b00;fontSize=13;fontStyle=1" parent="1" vertex="1"><mxGeometry x="-684" y="690" width="180" height="40" as="geometry"/></mxCell><mxCell id="120" value="extractCveManger&lt;br&gt;&lt;span style=&quot;font-size: 11px; font-weight: 400;&quot;&gt;外部请求&lt;/span&gt;" style="rounded=1;whiteSpace=wrap;html=1;fillColor=#ffe6cc;strokeColor=#d79b00;fontSize=13;fontStyle=1" parent="1" vertex="1"><mxGeometry x="-464" y="690" width="180" height="40" as="geometry"/></mxCell><mxCell id="121" style="edgeStyle=orthogonalEdgeStyle;rounded=0;orthogonalLoop=1;jettySize=auto;html=1;fontSize=12;fontColor=#000000;entryX=0.5;entryY=0;entryDx=0;entryDy=0;exitX=0.5;exitY=1;exitDx=0;exitDy=0;" parent="1" source="118" target="120" edge="1"><mxGeometry relative="1" as="geometry"><mxPoint x="86" y="610" as="targetPoint"/><mxPoint x="-484" y="640" as="sourcePoint"/><Array as="points"><mxPoint x="-484" y="660"/><mxPoint x="-374" y="660"/></Array></mxGeometry></mxCell><mxCell id="122" style="edgeStyle=orthogonalEdgeStyle;rounded=0;orthogonalLoop=1;jettySize=auto;html=1;fontSize=12;fontColor=#000000;entryX=0.5;entryY=0;entryDx=0;entryDy=0;exitX=0.5;exitY=1;exitDx=0;exitDy=0;" parent="1" source="118" target="119" edge="1"><mxGeometry relative="1" as="geometry"><mxPoint x="86" y="610" as="targetPoint"/><mxPoint x="-484" y="641" as="sourcePoint"/><Array as="points"><mxPoint x="-484" y="660"/><mxPoint x="-594" y="660"/></Array></mxGeometry></mxCell><mxCell id="123" style="edgeStyle=orthogonalEdgeStyle;rounded=0;orthogonalLoop=1;jettySize=auto;html=1;exitX=0.5;exitY=1;exitDx=0;exitDy=0;entryX=0.5;entryY=0;entryDx=0;entryDy=0;fontSize=12;fontColor=#000000;" parent="1" source="124" target="126" edge="1"><mxGeometry relative="1" as="geometry"/></mxCell><mxCell id="124" value="collectStatisticsTask&lt;br&gt;&lt;span style=&quot;font-size: 11px; font-weight: 400;&quot;&gt;本地计算&lt;/span&gt;" style="rounded=1;whiteSpace=wrap;html=1;fillColor=#dae8fc;strokeColor=#6c8ebf;fontSize=13;fontStyle=1" parent="1" vertex="1"><mxGeometry x="-380" y="830" width="180" height="40" as="geometry"/></mxCell><mxCell id="125" style="edgeStyle=orthogonalEdgeStyle;rounded=0;orthogonalLoop=1;jettySize=auto;html=1;exitX=0.5;exitY=1;exitDx=0;exitDy=0;entryX=0.5;entryY=0;entryDx=0;entryDy=0;fontSize=12;fontColor=#000000;" parent="1" source="126" target="127" edge="1"><mxGeometry relative="1" as="geometry"/></mxCell><mxCell id="126" value="readSbomEndTask&lt;br&gt;&lt;span style=&quot;font-size: 11px; font-weight: 400;&quot;&gt;本地计算&lt;/span&gt;" style="rounded=1;whiteSpace=wrap;html=1;fillColor=#dae8fc;strokeColor=#6c8ebf;fontSize=13;fontStyle=1" parent="1" vertex="1"><mxGeometry x="-380" y="900" width="180" height="40" as="geometry"/></mxCell><mxCell id="127" value="Over" style="ellipse;whiteSpace=wrap;html=1;aspect=fixed;fillColor=#f8cecc;strokeColor=#b85450;fontSize=13;" parent="1" vertex="1"><mxGeometry x="-315" y="970" width="50" height="50" as="geometry"/></mxCell><mxCell id="128" style="edgeStyle=orthogonalEdgeStyle;rounded=0;orthogonalLoop=1;jettySize=auto;html=1;fontSize=12;fontColor=#000000;exitX=0.5;exitY=1;exitDx=0;exitDy=0;" parent="1" source="129" target="124" edge="1"><mxGeometry relative="1" as="geometry"><mxPoint x="-314" y="830" as="targetPoint"/></mxGeometry></mxCell><mxCell id="129" value="" style="rounded=1;whiteSpace=wrap;html=1;fontSize=12;fillColor=#e1d5e7;strokeColor=#9673a6;" parent="1" vertex="1"><mxGeometry x="-175" y="560" width="241" height="230" as="geometry"/></mxCell><mxCell id="131" value="" style="edgeStyle=orthogonalEdgeStyle;rounded=0;orthogonalLoop=1;jettySize=auto;html=1;fontSize=12;fontColor=#000000;" parent="1" source="132" target="135" edge="1"><mxGeometry relative="1" as="geometry"/></mxCell><mxCell id="132" value="extractLicense&lt;br&gt;&lt;span style=&quot;font-size: 11px; font-weight: 400;&quot;&gt;增量缓存&lt;/span&gt;" style="rounded=1;whiteSpace=wrap;html=1;fillColor=#ffe6cc;strokeColor=#d79b00;fontSize=13;fontStyle=1" parent="1" vertex="1"><mxGeometry x="-144.5" y="670" width="180" height="40" as="geometry"/></mxCell><mxCell id="133" value="" style="edgeStyle=orthogonalEdgeStyle;rounded=0;orthogonalLoop=1;jettySize=auto;html=1;fontSize=12;fontColor=#000000;" parent="1" source="134" edge="1"><mxGeometry relative="1" as="geometry"><mxPoint x="-54" y="670" as="targetPoint"/></mxGeometry></mxCell><mxCell id="134" value="supplySourceInfo&lt;br&gt;&lt;span style=&quot;font-weight: normal;&quot;&gt;&lt;font style=&quot;font-size: 11px;&quot;&gt;增量缓存&lt;/font&gt;&lt;/span&gt;" style="rounded=1;whiteSpace=wrap;html=1;fillColor=#ffe6cc;strokeColor=#d79b00;fontSize=13;fontStyle=1" parent="1" vertex="1"><mxGeometry x="-144.5" y="600" width="180" height="40" as="geometry"/></mxCell><mxCell id="135" value="fillUpLicense&lt;br&gt;&lt;span style=&quot;font-weight: normal;&quot;&gt;&lt;font style=&quot;font-size: 11px;&quot;&gt;本地计算&lt;/font&gt;&lt;/span&gt;" style="rounded=1;whiteSpace=wrap;html=1;fillColor=#dae8fc;strokeColor=#6c8ebf;fontSize=13;fontStyle=1" parent="1" vertex="1"><mxGeometry x="-144.5" y="740" width="180" height="40" as="geometry"/></mxCell><mxCell id="130" value="&lt;b&gt;repoMetaConsumers&lt;/b&gt;" style="text;html=1;strokeColor=none;fillColor=none;align=center;verticalAlign=middle;whiteSpace=wrap;rounded=0;fontSize=13;fontColor=#000000;" parent="1" vertex="1"><mxGeometry x="-164" y="565" width="140" height="20" as="geometry"/></mxCell><mxCell id="146" value="" style="group;movable=1;resizable=1;rotatable=1;deletable=1;editable=1;connectable=1;" vertex="1" connectable="0" parent="1"><mxGeometry x="-10" y="830" width="80" height="200" as="geometry"/></mxCell><mxCell id="140" value="" style="rounded=0;whiteSpace=wrap;html=1;fontSize=11;fillColor=#f5f5f5;fontColor=#333333;strokeColor=#666666;movable=1;resizable=1;rotatable=1;deletable=1;editable=1;connectable=1;" parent="146" vertex="1"><mxGeometry width="80" height="200" as="geometry"/></mxCell><mxCell id="136" value="Decider" style="rhombus;whiteSpace=wrap;html=1;fillColor=#d5e8d4;strokeColor=#82b366;fontSize=13;movable=1;resizable=1;rotatable=1;deletable=1;editable=1;connectable=1;" parent="146" vertex="1"><mxGeometry x="10" y="132" width="60" height="60" as="geometry"/></mxCell><mxCell id="137" value="Step" style="rounded=1;whiteSpace=wrap;html=1;fillColor=#dae8fc;strokeColor=#6c8ebf;fontSize=13;fontStyle=1;movable=1;resizable=1;rotatable=1;deletable=1;editable=1;connectable=1;" parent="146" vertex="1"><mxGeometry x="5" y="50" width="70" height="30" as="geometry"/></mxCell><mxCell id="138" value="Chunk" style="rounded=1;whiteSpace=wrap;html=1;fillColor=#ffe6cc;strokeColor=#d79b00;fontSize=13;fontStyle=1;movable=1;resizable=1;rotatable=1;deletable=1;editable=1;connectable=1;" parent="146" vertex="1"><mxGeometry x="5.5" y="91" width="70" height="30" as="geometry"/></mxCell><mxCell id="139" value="Flow" style="rounded=1;whiteSpace=wrap;html=1;fillColor=#e1d5e7;strokeColor=#9673a6;fontSize=13;fontStyle=1;movable=1;resizable=1;rotatable=1;deletable=1;editable=1;connectable=1;" parent="146" vertex="1"><mxGeometry x="5" y="9" width="70" height="30" as="geometry"/></mxCell></root></mxGraphModel></diagram></mxfile>